<?xml version="1.0" encoding="UTF-8"?>
<svg id="Layer_2" data-name="Layer 2" xmlns="http://www.w3.org/2000/svg" viewBox="0 0 846.04 846.03">
  <defs>
    <style>
      .cls-1 {
        fill: #343845;
      }

      .cls-2 {
        fill: #fff;
      }
    </style>
  </defs>
  <g id="Layer_2-2" data-name="Layer 2">
    <g>
      <rect class="cls-2" width="846.04" height="846.03"/>
      <g>
        <path class="cls-1" d="M607.86,625.69c9.23,2.07,1.18,11.59-2.48,15.44-7.35,8.73-17.17,16.95-29.13,18.8-7.43,1.93-14.43,4.66-21.38,3.97-9.41-1.55-18.24-7.55-24.15-14.86-15.4-25.92,24.23-58.57,43.38-72.91,18.02-10.06,39.52-11.37,59.4-8.47,12.73,4.77,27.28,13.08,35.5,24.36,5.28,9.14,5.62,20.48,5.17,30.9-.38,11.89.51,23.22-5.61,33.62-5.74,11.17-12.11,22.63-17.93,33.84-5.05,10.16-10.54,20.92-20.02,27.68-17.74,11.75-35.29,26.22-55.72,31.9-26.57,13.06-55.09,21.87-84.89,19.86-36.52,2.35-54.69-3.58-75.37-35.82-6.96-9.59-11.61-18.57-17.38-28.52-5.03-10.66-8.17-24.08-11.34-35.42-1.07-5.05-.19-10.57-2.76-14.9-5.83-7.61-14.49-14.46-21.36-21.25-5.93-5.35-10.65-12.49-17.06-17.55-11.44-8.14-16.59-21.52-25.56-31.97-14.59-18.77-20.81-42.49-36.73-60.22-7.33-7.62-17.07-13.75-25.05-19.55-6.24-2.72-11.96-5.16-17.98-8.68-2.22-1.17-3.89-2.51-3.74-3.95,5.9-9.56,21.39-7.69,32.37-6.76,5.12.57,9.78,2.21,14.12,4.84,7.64,4.74,16.85,6.42,24.45,11.42,7.42,4.93,16.74,7.06,24.23,12.53,9.43,8.03,17.87,16.53,26.91,24.95,7.73,10.51,14.97,20.88,22.55,30.89,1.63,1.67,3.31,2.34,4.52,1.52.69-.49,1.19-1.4,1.53-2.57,1.69-9.08,2.03-17.11,3.59-26.6,1.58-10.37-9.64-15.72-16.77-20.89-12.77-8.65-20.25-22.45-29.42-34.16-5.64-6.62-11.25-11.3-17.21-17.45-9.45-12.19-20.69-24.03-30.92-34.98-4.12-5.96-9.85-10.81-15.17-15.61-4.11-4.11-.74-7.97,4.54-8.67,14.6-1.03,29.06,5.1,42.53,8.23,17.83,3.86,32.04,16.72,45.09,29.22,11.7,8.29,18.11,23.34,23.59,35.95,4.82,7.69,7.52-.43,7.96-5.3.98-7.34,4.72-14.17,7.27-21.04,1.26-3.18.77-6.16-2.69-7.83-6.99-3.21-14.32-8.16-19.75-13.96-11.48-14.11-23.63-26.84-34.92-41.08-11.96-18.44-19.27-40.24-34.52-56.66-3.7-5.99,3.91-10.22,9.07-7.94,17.15,5.24,31.89,12.38,46.84,23.34,11.35,9.62,21.6,21.51,31.74,32.7,4.11,6.69,8.1,13.86,12.55,21.23,2.55,5.62,6.01,15.34,11.17,5.48,5.92-12.95,14.95-24.13,19.9-37.42,1.15-4.47-1.98-7.21-6.3-9.17-10.93-4.54-21.65-8.98-30.69-16.74-12.46-9.76-17.44-25.81-23.6-39.87-7.29-12.06-16.62-21.96-21.32-34.99-6.98-20.7,45.17,8.73,50.63,12.43,15.52,11.28,31.07,23.53,39.34,41.7,2.53,4.53,7.26,7.69,9.76,1.29,2.53-8.44,7.98-18.1,7.12-27.29-4.17-7.86-15.06-11.26-22.51-16.03-3.71-2.11-9.24-7.23-12.8-10.25-7.6-6.23-17.75-11.5-24.67-18.13-11.63-10.62-17.62-23.3-22.43-37.69-2.04-5.43-6.63-10.32-7.24-15.25.14-1.23,1.28-1.95,3.17-2.18,16.69-.37,32.39,8.41,47.09,15.19,9.37,4.35,18.48,9.3,24.89,16.85,1.38,1.19,18.17,21.16,17.07,13.05-2.35-8.8-2.92-19.08-6.73-27.48-2.49-5.24-3.44-10.6-7.31-14.3-8.92-6.05-21.4-6.51-31.58-10.38-10.96-4.89-20.11-11.93-28.33-21.23-7.65-8.23-15.29-15.08-23.62-22.41-5.47-6.03,12.76-6.76,15.98-6.21,16.28,2.43,32.6,8.56,47.85,14.79,6.91.92,2.45-7.92,2.18-11.85-.55-3.02-1.09-6.23-2.77-8.7-3.53-5.17-11.08-8.64-14.27-14.41-5.87-11.96-3.24-25.87-6.4-39.19-.5-2.63-1.87-6.31-1.95-8.57-.03-1.45.67-2.36,2.04-2.59,10.23,1.19,17.52,12.67,22.11,21.13,5.7,10.94,12.73,22.28,8.96,35.14-2.21,6.1-.55,11.81,1.23,17.79.92,4.14,3.46,10.47,7.52,6.01,4.07-6.97,4.89-15.66,9.01-22.74,5.08-8.18,10.45-18.9,20.47-21.26,3.69-.33,5.22,1.23,5.11,5.23.01,5.47-.06,15.1.09,21.33,1.95,20.83-.66,47.21-18.1,61.16-1.87,1.85-2.7,3.79-2.33,6.27,2.8,12.55,7.12,25.14,9.94,37.73.66,2.32,1.44,3.18,2.41.3,2.75-11.42,9.04-24.01,16.49-33,4.75-4.4,51.8-46.44,48.81-27.84-.5,16.28-1.54,32.89-8.07,47.99-9.73,21-21.15,42.03-38.4,57.38-7.07,6.53-18.79,8.21-22.51,17.87-9.15,29.07-8.91,37.51,15.56,12.11,11.66-8.84,24.22-15.2,36.87-22.05,8.51-6.11,42.11-23.72,49.82-15.81.26,6.13-7.16,11.23-9.48,16.79-4.37,10.96-11.05,18.98-18.2,28.46-19.69,24.27-49.51,42.88-80.6,46.59-4.95.49-9.99,2.15-13.92,5.19-5.98,4.32-8.1,12.01-11.6,17.78-2.66,4.44-6.71,10.2-9.11,14.08-1.89,2.95-6.54,10.76.29,8.91,8.17-3.62,13-11.22,21.49-16.75,10.66-6.05,19.1-11.89,30.87-16.14,25.39-12.16,51.45-21.83,80.58-19.85,13.11.81,48.14-1.54,18.06,14.15-11.37,5.87-20.78,16.39-31.35,22.42-8.65,4.46-16.75,10.83-25.06,15.72-15.32,7.89-29.82,17.83-46.91,21.19-19.4,5.07-40.25,12.46-60.58,13.19-3.73.12-7.33,1.31-9.53,4.46-6.16,9.26-8.44,20.32-10.83,31.35.04,6.84,9.68-.39,12.26-2.17,12.43-11.93,29.22-18.53,44.77-25.23,11.24-4.26,22.67-5.8,33.78-9.66,29.51-7.24,62.01-20.36,92.7-10.43,4.78,1.55,16.47,7.54,6.58,11.11-18.29,4.51-31.89,14.98-48.99,22.47-4.71,1.88-9.38,3.28-13.61,5.78-7.51,5.83-17.51,7.23-26.07,11.6-5.01,3.31-10.85,5.11-16.4,7.9-21.15,10.64-20.29,13.2-32.57,18.89-10.08,4.66-26.84,12.42-45.83,15.37-3.25.5-9.68,1.35-13.22,6.24-1.92,2.65-2.19,6.72-2.2,14.76-.03,17.47-.7,20.84,1.37,21.8,2.6,1.21,6.33-2.87,11.81-7.4,6.11-5.05,15.09-11.22,27.84-16.41,20.95-14.61,44.82-23.76,68.56-33.25,35.93-8.57,88.21-31.67,118.56-.69,3.28,6.79-2.34,7.94-7.44,8.84-3.66,1.34-8.4,2.45-12.49,2.93-9.93,1.34-19.89,7.06-28.9,9.96-9.81,4.36-17.26,5.84-25.93,12.36-10.2,7.19-20.12,13.3-29.87,21.01-14.98,16.26-26.88,34.96-45.97,47.57-10.5,8.31-22.39,14.52-33.93,20.89-9.94,7.23-21.7,11.44-33.52,14-3.05.83-4.75,2.09-4.55,5.75.8,10.79,3.6,20.19,8.75,29.46,8.64,22.37,21.76,46.87,44.28,57.3,50.18,15.57,121.44-19.57,157.08-53.56,14.08-11.98,20.7-28.58,29.12-44.18,1.8-5.26,5.46-10.97,7.13-16.53,1.13-5.33.85-11,2.13-16.07,2.77-9.91-3.35-19.96-12.29-23.97-5.18-2.85-9.79-6.71-15.3-8.95-11.21-2.75-23.94-4.59-35.47-1.04-12.7,1.95-21.44,12.06-30.98,20.21-8.61,6.34-30.09,36.81-12.55,43.51,11.67-1.46,27.25-5.04,43.46-14,4.94-2.73,9.34-5.63,13.22-8.52Z"/>
        <path class="cls-1" d="M239.57,667.32c4.4,5.1,7.86,8.36,13.32,12.15,11.76,8.17,21.77,17.42,39.51,28.76,7.4,4.73,15.96,10.2,28.38,15.84,12.06,5.48,21.56,8.1,40.07,13.11,0,0,11.58,3.13,19.97,3.41,1.24.04,1.84.04,3.04.09,1.83.07,4.04.19,6.1.63.43.09,1.21.28,2.13.69.67.3,1.12.59,1.24.67.24.16.78.53,1.37,1.13.4.41.66.76.87,1.03.23.31.65.89,1.05,1.67.14.29.33.67.65,1.21.06.11.14.22.23.36.31.45.47.59.88,1.2.11.17.24.36.57.91.83,1.39.85,1.52,1.17,1.98.43.62.47.5,1.22,1.4.96,1.16.88,1.36,1.74,2.37.51.6.45.43,1.57,1.65.47.52.81.89,1.25,1.42.3.37.48.6.74.91.45.54.77.85.96,1.06.53.57,1.71,2.14,1.37,3.02-.3.77-1.7.89-4.42.96-3.44.1-5.16.14-6.8.02-5.42-.41-4.28.08-10.64-.33-3.58-.23-6.36-.53-11.26-1.08-2.3-.25-4.22-.49-4.87-.57-8.71-1.09-18.69-4.05-20.22-4.5-23.87-7.14-44.75-17.84-44.75-17.84-17.85-9.15-30.27-18.07-33.4-20.35-16.79-12.22-26.52-24.79-36.57-32.87-15.99-12.87-25.53-29.48-36.72-45.87-8.82-11.71-19.22-24.73-24.08-39.22-4.79-17.76-5.56-36.8,3.8-52.69,8.58-13.36,24.82-27.29,41.6-21.52,32,11.59,59.53,37.42,73.89,68.15,7.61,17.99-6.02,35.95-24.94,34.4-8.24-.56-16.34-6.08-23.96-9.36-6.06-4.3-15.97-8.44-19.44-15.8-2.31-10.39,10.07-6.13,14.23-1.63,7.82,7.08,20.27,12.53,30.46,8.12,8.37-5.85,3.84-19.27,1.82-26.85-10.02-20.74-29.31-35.86-50.29-43.09-29.11-7.28-37.02,31.42-30.05,52.52,4.43,13.39,9.77,23.83,24.01,43.78,8.89,12.46,17.17,22.19,23.23,28.91Z"/>
      </g>
    </g>
  </g>
</svg>